{
.formatVersion = 3;
date = "2011-07-13 09:44:00 +0000";
familyName = GeostarFill;
fontMaster = (
{
customParameters = (
{
name = typoAscender;
value = 922;
},
{
name = typoDescender;
value = -226;
},
{
name = typoLineGap;
value = 0;
},
{
name = winAscent;
value = 922;
},
{
name = winDescent;
value = 226;
},
{
name = hheaAscender;
value = 922;
},
{
name = hheaDescender;
value = -226;
},
{
name = hheaLineGap;
value = 0;
}
);
id = "4bc33c8c-7854-4c4b-8534-8d0473767946";
metricValues = (
{
},
{
pos = -50;
},
{
pos = 50;
},
{
pos = 800;
},
{
pos = -200;
},
{
pos = 700;
},
{
pos = 650;
},
{
},
{
pos = 140;
},
{
pos = 700;
},
{
pos = 650;
},
{
},
{
pos = 477;
},
{
pos = 50;
},
{
pos = 250;
}
);
name = Regular;
visible = 1;
}
);
glyphs = (
{
glyphname = exclam;
layers = (
{
layerId = "4bc33c8c-7854-4c4b-8534-8d0473767946";
name = Fore;
shapes = (
{
closed = 1;
nodes = (
(95,225,l),
(67,695,l),
(274,695,l),
(246,225,l)
);
},
{
closed = 1;
nodes = (
(75,0,l),
(75,153,l),
(267,153,l),
(267,0,l)
);
}
);
width = 342;
}
);
unicode = 33;
},
{
glyphname = quotedbl;
layers = (
{
layerId = "4bc33c8c-7854-4c4b-8534-8d0473767946";
name = Fore;
shapes = (
{
closed = 1;
nodes = (
(222,440,l),
(79,440,l),
(49,754,l),
(252,754,l)
);
},
{
closed = 1;
nodes = (
(492,440,l),
(349,440,l),
(319,754,l),
(522,754,l)
);
}
);
width = 571;
}
);
unicode = 34;
},
{
glyphname = numbersign;
layers = (
{
layerId = "4bc33c8c-7854-4c4b-8534-8d0473767946";
name = Fore;
shapes = (
{
closed = 1;
nodes = (
(686,249,l),
(805,249,l),
(805,204,l),
(686,204,l),
(686,56,l),
(519,56,l),
(519,204,l),
(337,204,l),
(337,56,l),
(170,56,l),
(170,204,l),
(52,204,l),
(52,249,l),
(170,249,l),
(170,403,l),
(52,403,l),
(52,448,l),
(170,448,l),
(170,597,l),
(337,597,l),
(337,448,l),
(519,448,l),
(519,597,l),
(686,597,l),
(686,448,l),
(805,448,l),
(805,403,l),
(686,403,l)
);
},
{
closed = 1;
nodes = (
(519,403,l),
(337,403,l),
(337,249,l),
(519,249,l)
);
}
);
width = 857;
}
);
unicode = 35;
},
{
glyphname = dollar;
layers = (
{
layerId = "4bc33c8c-7854-4c4b-8534-8d0473767946";
name = Fore;
shapes = (
{
closed = 1;
nodes = (
(826,650,l),
(485,650,l),
(485,370,l),
(871,370,l),
(871,0,l),
(485,0,l),
(485,-122,l),
(440,-122,l),
(440,0,l),
(55,0,l),
(55,185,l),
(100,185,l),
(100,45,l),
(440,45,l),
(440,325,l),
(55,325,l),
(55,695,l),
(440,695,l),
(440,817,l),
(485,817,l),
(485,695,l),
(871,695,l),
(871,510,l),
(826,510,l)
);
},
{
closed = 1;
nodes = (
(485,45,l),
(704,45,l),
(704,325,l),
(485,325,l)
);
},
{
closed = 1;
nodes = (
(222,650,l),
(222,370,l),
(440,370,l),
(440,650,l)
);
}
);
width = 926;
}
);
unicode = 36;
},
{
glyphname = percent;
layers = (
{
layerId = "4bc33c8c-7854-4c4b-8534-8d0473767946";
name = Fore;
shapes = (
{
closed = 1;
nodes = (
(251,0,l),
(44,0,l),
(676,695,l),
(883,695,l)
);
},
{
closed = 1;
nodes = (
(344,695,l),
(344,497,l),
(71,497,l),
(71,695,l)
);
},
{
closed = 1;
nodes = (
(857,198,l),
(857,0,l),
(584,0,l),
(584,198,l)
);
}
);
width = 924;
}
);
unicode = 37;
},
{
glyphname = ampersand;
layers = (
{
layerId = "4bc33c8c-7854-4c4b-8534-8d0473767946";
name = Fore;
shapes = (
{
closed = 1;
nodes = (
(224,371,l),
(520,371,l),
(520,326,l),
(224,326,l),
(224,113,l),
(657,113,l),
(657,68,l),
(397,68,l),
(397,-73,l),
(352,-73,l),
(352,68,l),
(57,68,l),
(57,628,l),
(352,628,l),
(352,770,l),
(397,770,l),
(397,628,l),
(657,628,l),
(657,583,l),
(224,583,l)
);
}
);
width = 683;
}
);
unicode = 38;
},
{
glyphname = quotesingle;
layers = (
{
layerId = "4bc33c8c-7854-4c4b-8534-8d0473767946";
name = Fore;
shapes = (
{
closed = 1;
nodes = (
(232,454,l),
(44,454,l),
(200,754,l),
(388,754,l)
);
}
);
width = 375;
}
);
unicode = 39;
},
{
glyphname = parenleft;
layers = (
{
layerId = "4bc33c8c-7854-4c4b-8534-8d0473767946";
name = Fore;
shapes = (
{
closed = 1;
nodes = (
(384,-99,l),
(312,-99,l),
(48,115,l),
(48,554,l),
(312,767,l),
(384,767,l),
(215,631,l),
(215,38,l)
);
}
);
width = 385;
}
);
unicode = 40;
},
{
glyphname = parenright;
layers = (
{
layerId = "4bc33c8c-7854-4c4b-8534-8d0473767946";
name = Fore;
shapes = (
{
closed = 1;
nodes = (
(1,767,l),
(73,767,l),
(337,554,l),
(337,115,l),
(73,-99,l),
(1,-99,l),
(170,38,l),
(170,631,l)
);
}
);
width = 385;
}
);
unicode = 41;
},
{
glyphname = asterisk;
layers = (
{
layerId = "4bc33c8c-7854-4c4b-8534-8d0473767946";
name = Fore;
shapes = (
{
closed = 1;
nodes = (
(303,527,l),
(375,401,l),
(321,370,l),
(248,495,l),
(176,370,l),
(121,401,l),
(194,527,l),
(49,527,l),
(49,590,l),
(194,590,l),
(121,715,l),
(176,747,l),
(248,621,l),
(321,747,l),
(375,715,l),
(303,590,l),
(448,590,l),
(448,527,l)
);
}
);
width = 497;
}
);
unicode = 42;
},
{
glyphname = plus;
layers = (
{
layerId = "4bc33c8c-7854-4c4b-8534-8d0473767946";
name = Fore;
shapes = (
{
closed = 1;
nodes = (
(517,256,l),
(306,256,l),
(306,99,l),
(261,99,l),
(261,256,l),
(50,256,l),
(50,409,l),
(261,409,l),
(261,566,l),
(306,566,l),
(306,409,l),
(517,409,l)
);
}
);
width = 567;
}
);
unicode = 43;
},
{
glyphname = comma;
layers = (
{
layerId = "4bc33c8c-7854-4c4b-8534-8d0473767946";
name = Fore;
shapes = (
{
closed = 1;
nodes = (
(147,-147,l),
(-41,-147,l),
(115,153,l),
(303,153,l)
);
}
);
width = 362;
}
);
unicode = 44;
},
{
glyphname = hyphen;
layers = (
{
layerId = "4bc33c8c-7854-4c4b-8534-8d0473767946";
name = Fore;
shapes = (
{
closed = 1;
nodes = (
(59,256,l),
(59,409,l),
(526,409,l),
(526,256,l)
);
}
);
width = 585;
}
);
unicode = 45;
},
{
glyphname = period;
layers = (
{
layerId = "4bc33c8c-7854-4c4b-8534-8d0473767946";
name = Fore;
shapes = (
{
closed = 1;
nodes = (
(59,0,l),
(59,153,l),
(251,153,l),
(251,0,l)
);
}
);
width = 310;
}
);
unicode = 46;
},
{
glyphname = slash;
layers = (
{
layerId = "4bc33c8c-7854-4c4b-8534-8d0473767946";
name = Fore;
shapes = (
{
closed = 1;
nodes = (
(215,-147,l),
(27,-147,l),
(499,757,l),
(687,757,l)
);
}
);
width = 714;
}
);
unicode = 47;
},
{
glyphname = zero;
layers = (
{
layerId = "4bc33c8c-7854-4c4b-8534-8d0473767946";
name = Fore;
shapes = (
{
closed = 1;
nodes = (
(882,0,l),
(66,0,l),
(66,695,l),
(882,695,l)
);
},
{
closed = 1;
nodes = (
(813,650,l),
(233,650,l),
(233,73,l)
);
},
{
closed = 1;
nodes = (
(269,45,l),
(837,45,l),
(837,611,l)
);
}
);
width = 948;
}
);
unicode = 48;
},
{
glyphname = one;
layers = (
{
layerId = "4bc33c8c-7854-4c4b-8534-8d0473767946";
name = Fore;
shapes = (
{
closed = 1;
nodes = (
(652,45,l),
(652,0,l),
(34,0,l),
(34,45,l),
(272,45,l),
(272,650,l),
(34,650,l),
(34,695,l),
(439,695,l),
(439,45,l)
);
}
);
width = 652;
}
);
unicode = 49;
},
{
glyphname = two;
layers = (
{
layerId = "4bc33c8c-7854-4c4b-8534-8d0473767946";
name = Fore;
shapes = (
{
closed = 1;
nodes = (
(878,325,l),
(229,325,l),
(229,45,l),
(833,45,l),
(833,185,l),
(878,185,l),
(878,0,l),
(62,0,l),
(62,370,l),
(711,370,l),
(711,650,l),
(107,650,l),
(107,510,l),
(62,510,l),
(62,695,l),
(878,695,l)
);
}
);
width = 940;
}
);
unicode = 50;
},
{
glyphname = three;
layers = (
{
layerId = "4bc33c8c-7854-4c4b-8534-8d0473767946";
name = Fore;
shapes = (
{
closed = 1;
nodes = (
(57,695,l),
(873,695,l),
(873,0,l),
(57,0,l),
(57,185,l),
(102,185,l),
(102,45,l),
(706,45,l),
(706,325,l),
(219,325,l),
(219,370,l),
(706,370,l),
(706,650,l),
(102,650,l),
(102,510,l),
(57,510,l)
);
}
);
width = 939;
}
);
unicode = 51;
},
{
glyphname = four;
layers = (
{
layerId = "4bc33c8c-7854-4c4b-8534-8d0473767946";
name = Fore;
shapes = (
{
closed = 1;
nodes = (
(690,0,l),
(690,325,l),
(41,325,l),
(41,695,l),
(86,695,l),
(86,370,l),
(690,370,l),
(690,695,l),
(857,695,l),
(857,0,l)
);
}
);
width = 923;
}
);
unicode = 52;
},
{
glyphname = five;
layers = (
{
layerId = "4bc33c8c-7854-4c4b-8534-8d0473767946";
name = Fore;
shapes = (
{
closed = 1;
nodes = (
(878,510,l),
(833,510,l),
(833,650,l),
(229,650,l),
(229,370,l),
(878,370,l),
(878,0,l),
(62,0,l),
(62,185,l),
(107,185,l),
(107,45,l),
(711,45,l),
(711,325,l),
(62,325,l),
(62,695,l),
(878,695,l)
);
}
);
width = 940;
}
);
unicode = 53;
},
{
glyphname = six;
layers = (
{
layerId = "4bc33c8c-7854-4c4b-8534-8d0473767946";
name = Fore;
shapes = (
{
closed = 1;
nodes = (
(837,650,l),
(233,650,l),
(233,370,l),
(882,370,l),
(882,0,l),
(66,0,l),
(66,695,l),
(882,695,l),
(882,510,l),
(837,510,l)
);
},
{
closed = 1;
nodes = (
(233,45,l),
(837,45,l),
(837,325,l),
(233,325,l)
);
}
);
width = 944;
}
);
unicode = 54;
},
{
glyphname = seven;
layers = (
{
layerId = "4bc33c8c-7854-4c4b-8534-8d0473767946";
name = Fore;
shapes = (
{
closed = 1;
nodes = (
(610,0,l),
(610,650,l),
(65,650,l),
(65,510,l),
(20,510,l),
(20,695,l),
(777,695,l),
(777,0,l)
);
}
);
width = 843;
}
);
unicode = 55;
},
{
glyphname = eight;
layers = (
{
layerId = "4bc33c8c-7854-4c4b-8534-8d0473767946";
name = Fore;
shapes = (
{
closed = 1;
nodes = (
(66,0,l),
(66,695,l),
(882,695,l),
(882,0,l)
);
},
{
closed = 1;
nodes = (
(233,325,l),
(233,45,l),
(836,45,l),
(836,325,l)
);
},
{
closed = 1;
nodes = (
(836,371,l),
(836,650,l),
(233,650,l),
(233,371,l)
);
}
);
width = 948;
}
);
unicode = 56;
},
{
glyphname = nine;
layers = (
{
layerId = "4bc33c8c-7854-4c4b-8534-8d0473767946";
name = Fore;
shapes = (
{
closed = 1;
nodes = (
(107,45,l),
(711,45,l),
(711,325,l),
(62,325,l),
(62,695,l),
(878,695,l),
(878,0,l),
(62,0,l),
(62,185,l),
(107,185,l)
);
},
{
closed = 1;
nodes = (
(711,650,l),
(107,650,l),
(107,370,l),
(711,370,l)
);
}
);
width = 944;
}
);
unicode = 57;
},
{
glyphname = colon;
layers = (
{
layerId = "4bc33c8c-7854-4c4b-8534-8d0473767946";
name = Fore;
shapes = (
{
closed = 1;
nodes = (
(65,0,l),
(65,153,l),
(257,153,l),
(257,0,l)
);
},
{
closed = 1;
nodes = (
(65,401,l),
(65,554,l),
(257,554,l),
(257,401,l)
);
}
);
width = 322;
}
);
unicode = 58;
},
{
glyphname = semicolon;
layers = (
{
layerId = "4bc33c8c-7854-4c4b-8534-8d0473767946";
name = Fore;
shapes = (
{
closed = 1;
nodes = (
(111,401,l),
(111,554,l),
(303,554,l),
(303,401,l)
);
},
{
closed = 1;
nodes = (
(156,-147,l),
(-32,-147,l),
(124,153,l),
(312,153,l)
);
}
);
width = 384;
}
);
unicode = 59;
},
{
glyphname = less;
layers = (
{
layerId = "4bc33c8c-7854-4c4b-8534-8d0473767946";
name = Fore;
shapes = (
{
closed = 1;
nodes = (
(272,412,l),
(570,261,l),
(570,75,l),
(37,344,l),
(570,613,l),
(570,563,l)
);
}
);
width = 649;
}
);
unicode = 60;
},
{
glyphname = equal;
layers = (
{
layerId = "4bc33c8c-7854-4c4b-8534-8d0473767946";
name = Fore;
shapes = (
{
closed = 1;
nodes = (
(65,396,l),
(65,549,l),
(619,549,l),
(619,396,l)
);
},
{
closed = 1;
nodes = (
(65,133,l),
(65,286,l),
(619,286,l),
(619,133,l)
);
}
);
width = 684;
}
);
unicode = 61;
},
{
glyphname = greater;
layers = (
{
layerId = "4bc33c8c-7854-4c4b-8534-8d0473767946";
name = Fore;
shapes = (
{
closed = 1;
nodes = (
(377,276,l),
(79,427,l),
(79,613,l),
(612,344,l),
(79,75,l),
(79,125,l)
);
}
);
width = 649;
}
);
unicode = 62;
},
{
glyphname = question;
layers = (
{
layerId = "4bc33c8c-7854-4c4b-8534-8d0473767946";
name = Fore;
shapes = (
{
closed = 1;
nodes = (
(674,325,l),
(411,325,l),
(411,212,l),
(244,212,l),
(244,370,l),
(507,370,l),
(507,650,l),
(89,650,l),
(89,510,l),
(44,510,l),
(44,695,l),
(674,695,l)
);
},
{
closed = 1;
nodes = (
(231,0,l),
(231,153,l),
(423,153,l),
(423,0,l)
);
}
);
width = 732;
}
);
unicode = 63;
},
{
glyphname = at;
layers = (
{
layerId = "4bc33c8c-7854-4c4b-8534-8d0473767946";
name = Fore;
shapes = (
{
closed = 1;
nodes = (
(357,314,l),
(357,154,l),
(190,154,l),
(190,540,l),
(668,540,l),
(668,199,l),
(744,199,l),
(744,616,l),
(114,616,l),
(114,78,l),
(789,78,l),
(789,33,l),
(69,33,l),
(69,661,l),
(789,661,l),
(789,154,l),
(623,154,l),
(623,314,l)
);
},
{
closed = 1;
nodes = (
(623,495,l),
(357,495,l),
(357,359,l),
(623,359,l)
);
}
);
width = 855;
}
);
unicode = 64;
},
{
glyphname = A;
layers = (
{
layerId = "4bc33c8c-7854-4c4b-8534-8d0473767946";
name = Fore;
shapes = (
{
closed = 1;
nodes = (
(1046,0,l),
(803,0,l),
(803,45,l),
(902,45,l),
(902,325,l),
(298,325,l),
(298,45,l),
(397,45,l),
(397,0,l),
(31,0,l),
(31,45,l),
(131,45,l),
(131,650,l),
(31,650,l),
(31,695,l),
(947,695,l),
(947,45,l),
(1046,45,l)
);
},
{
closed = 1;
nodes = (
(902,650,l),
(298,650,l),
(298,370,l),
(902,370,l)
);
}
);
width = 1063;
}
);
unicode = 65;
},
{
glyphname = B;
layers = (
{
layerId = "4bc33c8c-7854-4c4b-8534-8d0473767946";
name = Fore;
shapes = (
{
closed = 1;
nodes = (
(948,317,o),
(948,266,q),
(948,0,l),
(32,0,l),
(32,45,l),
(131,45,l),
(131,650,l),
(32,650,l),
(32,695,l),
(948,695,l),
(948,430,l),
(948,379,o),
(908,348,q)
);
},
{
closed = 1;
nodes = (
(902,291,o),
(885,308,q),
(868,325,o),
(844,325,q),
(298,325,l),
(298,45,l),
(902,45,l),
(902,266,l)
);
},
{
closed = 1;
nodes = (
(298,650,l),
(298,371,l),
(844,371,l),
(868,371,o),
(885,388,q),
(902,405,o),
(902,430,q),
(902,650,l)
);
}
);
width = 1013;
}
);
unicode = 66;
},
{
glyphname = C;
layers = (
{
layerId = "4bc33c8c-7854-4c4b-8534-8d0473767946";
name = Fore;
shapes = (
{
closed = 1;
nodes = (
(855,650,l),
(298,650,l),
(298,45,l),
(855,45,l),
(855,185,l),
(900,185,l),
(900,0,l),
(32,0,l),
(32,45,l),
(131,45,l),
(131,650,l),
(32,650,l),
(32,695,l),
(900,695,l),
(900,510,l),
(855,510,l)
);
}
);
width = 951;
}
);
unicode = 67;
},
{
glyphname = D;
layers = (
{
layerId = "4bc33c8c-7854-4c4b-8534-8d0473767946";
name = Fore;
shapes = (
{
closed = 1;
nodes = (
(863,695,o),
(905.5,652.5,q),
(948,610,o),
(948,550,q),
(948,144,l),
(948,85,o),
(905.5,42.5,q),
(863,0,o),
(804,0,q),
(32,0,l),
(32,45,l),
(131,45,l),
(131,650,l),
(32,650,l),
(32,695,l),
(804,695,l)
);
},
{
closed = 1;
nodes = (
(903,591,o),
(873.5,620.5,q),
(844,650,o),
(804,650,q),
(298,650,l),
(298,45,l),
(804,45,l),
(844,45,o),
(873.5,74.5,q),
(903,104,o),
(903,144,q),
(903,550,l)
);
}
);
width = 1008;
}
);
unicode = 68;
},
{
glyphname = E;
layers = (
{
layerId = "4bc33c8c-7854-4c4b-8534-8d0473767946";
name = Fore;
shapes = (
{
closed = 1;
nodes = (
(903,650,l),
(298,650,l),
(298,370,l),
(740,370,l),
(740,469,l),
(786,469,l),
(786,226,l),
(740,226,l),
(740,325,l),
(298,325,l),
(298,45,l),
(903,45,l),
(903,185,l),
(948,185,l),
(948,0,l),
(32,0,l),
(32,45,l),
(131,45,l),
(131,650,l),
(32,650,l),
(32,695,l),
(948,695,l),
(948,510,l),
(903,510,l)
);
}
);
width = 997;
}
);
unicode = 69;
},
{
glyphname = F;
layers = (
{
layerId = "4bc33c8c-7854-4c4b-8534-8d0473767946";
name = Fore;
shapes = (
{
closed = 1;
nodes = (
(922,510,l),
(877,510,l),
(877,650,l),
(298,650,l),
(298,370,l),
(714,370,l),
(714,469,l),
(759,469,l),
(759,226,l),
(714,226,l),
(714,325,l),
(298,325,l),
(298,45,l),
(397,45,l),
(397,0,l),
(32,0,l),
(32,45,l),
(131,45,l),
(131,650,l),
(32,650,l),
(32,695,l),
(922,695,l)
);
}
);
width = 937;
}
);
unicode = 70;
},
{
glyphname = G;
layers = (
{
layerId = "4bc33c8c-7854-4c4b-8534-8d0473767946";
name = Fore;
shapes = (
{
closed = 1;
nodes = (
(902,650,l),
(298,650,l),
(298,45,l),
(902,45,l),
(902,325,l),
(519,325,l),
(519,370,l),
(947,370,l),
(947,0,l),
(31,0,l),
(31,45,l),
(131,45,l),
(131,650,l),
(31,650,l),
(31,695,l),
(947,695,l),
(947,510,l),
(902,510,l)
);
}
);
width = 1009;
}
);
unicode = 71;
},
{
glyphname = H;
layers = (
{
layerId = "4bc33c8c-7854-4c4b-8534-8d0473767946";
name = Fore;
shapes = (
{
closed = 1;
nodes = (
(947,45,l),
(1046,45,l),
(1046,0,l),
(803,0,l),
(803,45,l),
(902,45,l),
(902,325,l),
(297,325,l),
(297,45,l),
(397,45,l),
(397,0,l),
(31,0,l),
(31,45,l),
(131,45,l),
(131,650,l),
(31,650,l),
(31,695,l),
(397,695,l),
(397,650,l),
(297,650,l),
(297,370,l),
(902,370,l),
(902,650,l),
(803,650,l),
(803,695,l),
(1046,695,l),
(1046,650,l),
(947,650,l)
);
}
);
width = 1078;
}
);
unicode = 72;
},
{
glyphname = I;
layers = (
{
layerId = "4bc33c8c-7854-4c4b-8534-8d0473767946";
name = Fore;
shapes = (
{
closed = 1;
nodes = (
(366,45,l),
(546,45,l),
(546,0,l),
(19,0,l),
(19,45,l),
(199,45,l),
(199,650,l),
(19,650,l),
(19,695,l),
(546,695,l),
(546,650,l),
(366,650,l)
);
}
);
width = 565;
}
);
unicode = 73;
},
{
glyphname = J;
layers = (
{
layerId = "4bc33c8c-7854-4c4b-8534-8d0473767946";
name = Fore;
shapes = (
{
closed = 1;
nodes = (
(758,45,l),
(857,45,l),
(857,0,l),
(21,0,l),
(21,185,l),
(66,185,l),
(66,45,l),
(591,45,l),
(591,650,l),
(491,650,l),
(491,695,l),
(857,695,l),
(857,650,l),
(758,650,l)
);
}
);
width = 889;
}
);
unicode = 74;
},
{
glyphname = K;
layers = (
{
layerId = "4bc33c8c-7854-4c4b-8534-8d0473767946";
name = Fore;
shapes = (
{
closed = 1;
nodes = (
(1007,45,l),
(1007,0,l),
(763,0,l),
(763,45,l),
(840,45,l),
(630,325,l),
(298,325,l),
(298,45,l),
(398,45,l),
(398,0,l),
(32,0,l),
(32,45,l),
(131,45,l),
(131,650,l),
(32,650,l),
(32,695,l),
(398,695,l),
(398,650,l),
(298,650,l),
(298,370,l),
(629,370,l),
(803,650,l),
(722,650,l),
(722,695,l),
(966,695,l),
(966,650,l),
(857,650,l),
(669,349,l),
(896,45,l)
);
}
);
width = 1001;
}
);
unicode = 75;
},
{
glyphname = L;
layers = (
{
layerId = "4bc33c8c-7854-4c4b-8534-8d0473767946";
name = Fore;
shapes = (
{
closed = 1;
nodes = (
(897,0,l),
(31,0,l),
(31,45,l),
(131,45,l),
(131,650,l),
(31,650,l),
(31,695,l),
(397,695,l),
(397,650,l),
(298,650,l),
(298,45,l),
(852,45,l),
(852,185,l),
(897,185,l)
);
}
);
width = 918;
}
);
unicode = 76;
},
{
glyphname = M;
layers = (
{
layerId = "4bc33c8c-7854-4c4b-8534-8d0473767946";
name = Fore;
shapes = (
{
closed = 1;
nodes = (
(1150,45,l),
(1249,45,l),
(1249,0,l),
(884,0,l),
(884,45,l),
(983,45,l),
(983,586,l),
(640,-23,l),
(298,586,l),
(298,45,l),
(397,45,l),
(397,0,l),
(31,0,l),
(31,45,l),
(131,45,l),
(131,650,l),
(31,650,l),
(31,695,l),
(288,695,l),
(640,69,l),
(993,695,l),
(1249,695,l),
(1249,650,l),
(1150,650,l)
);
}
);
width = 1281;
}
);
unicode = 77;
},
{
glyphname = N;
layers = (
{
layerId = "4bc33c8c-7854-4c4b-8534-8d0473767946";
name = Fore;
shapes = (
{
closed = 1;
nodes = (
(988,45,l),
(1087,45,l),
(1087,0,l),
(834,0,l),
(298,612,l),
(298,45,l),
(397,45,l),
(397,0,l),
(32,0,l),
(32,45,l),
(131,45,l),
(131,650,l),
(32,650,l),
(32,695,l),
(286,695,l),
(821,83,l),
(821,650,l),
(722,650,l),
(722,695,l),
(1087,695,l),
(1087,650,l),
(988,650,l)
);
}
);
width = 1119;
}
);
unicode = 78;
},
{
glyphname = O;
layers = (
{
layerId = "4bc33c8c-7854-4c4b-8534-8d0473767946";
name = Fore;
shapes = (
{
closed = 1;
nodes = (
(882,0,l),
(66,0,l),
(66,695,l),
(882,695,l)
);
},
{
closed = 1;
nodes = (
(233,650,l),
(233,45,l),
(837,45,l),
(837,650,l)
);
}
);
width = 948;
}
);
unicode = 79;
},
{
glyphname = P;
layers = (
{
layerId = "4bc33c8c-7854-4c4b-8534-8d0473767946";
name = Fore;
shapes = (
{
closed = 1;
nodes = (
(298,45,l),
(398,45,l),
(398,0,l),
(32,0,l),
(32,45,l),
(131,45,l),
(131,650,l),
(32,650,l),
(32,695,l),
(917,695,l),
(917,325,l),
(298,325,l)
);
},
{
closed = 1;
nodes = (
(298,370,l),
(872,370,l),
(872,650,l),
(298,650,l)
);
}
);
width = 956;
}
);
unicode = 80;
},
{
glyphname = Q;
layers = (
{
layerId = "4bc33c8c-7854-4c4b-8534-8d0473767946";
name = Fore;
shapes = (
{
closed = 1;
nodes = (
(711,0,l),
(832,-80,l),
(806,-118,l),
(629,0,l),
(66,0,l),
(66,695,l),
(882,695,l),
(882,0,l)
);
},
{
closed = 1;
nodes = (
(232,650,l),
(232,45,l),
(562,45,l),
(441,126,l),
(466,163,l),
(643,45,l),
(837,45,l),
(837,650,l)
);
}
);
width = 948;
}
);
unicode = 81;
},
{
glyphname = R;
layers = (
{
layerId = "4bc33c8c-7854-4c4b-8534-8d0473767946";
name = Fore;
shapes = (
{
closed = 1;
nodes = (
(948,317,o),
(948,266,q),
(948,45,l),
(1047,45,l),
(1047,0,l),
(804,0,l),
(804,45,l),
(902,45,l),
(902,266,l),
(902,291,o),
(885,308,q),
(868,325,o),
(844,325,q),
(298,325,l),
(298,45,l),
(398,45,l),
(398,0,l),
(32,0,l),
(32,45,l),
(131,45,l),
(131,650,l),
(32,650,l),
(32,695,l),
(948,695,l),
(948,430,l),
(948,379,o),
(908,348,q)
);
},
{
closed = 1;
nodes = (
(298,650,l),
(298,371,l),
(844,371,l),
(868,371,o),
(885,388,q),
(902,405,o),
(902,430,q),
(902,650,l)
);
}
);
width = 1064;
}
);
unicode = 82;
},
{
glyphname = S;
layers = (
{
layerId = "4bc33c8c-7854-4c4b-8534-8d0473767946";
name = Fore;
shapes = (
{
closed = 1;
nodes = (
(878,510,l),
(833,510,l),
(833,650,l),
(229,650,l),
(229,370,l),
(878,370,l),
(878,0,l),
(62,0,l),
(62,185,l),
(107,185,l),
(107,45,l),
(711,45,l),
(711,325,l),
(62,325,l),
(62,695,l),
(878,695,l)
);
}
);
width = 940;
}
);
unicode = 83;
},
{
glyphname = T;
layers = (
{
layerId = "4bc33c8c-7854-4c4b-8534-8d0473767946";
name = Fore;
shapes = (
{
closed = 1;
nodes = (
(952,510,l),
(907,510,l),
(907,650,l),
(569,650,l),
(569,45,l),
(669,45,l),
(669,0,l),
(303,0,l),
(303,45,l),
(402,45,l),
(402,650,l),
(64,650,l),
(64,510,l),
(19,510,l),
(19,695,l),
(952,695,l)
);
}
);
width = 971;
}
);
unicode = 84;
},
{
glyphname = U;
layers = (
{
layerId = "4bc33c8c-7854-4c4b-8534-8d0473767946";
name = Fore;
shapes = (
{
closed = 1;
nodes = (
(948,650,l),
(948,0,l),
(32,0,l),
(32,45,l),
(131,45,l),
(131,650,l),
(32,650,l),
(32,695,l),
(397,695,l),
(397,650,l),
(298,650,l),
(298,45,l),
(903,45,l),
(903,650,l),
(803,650,l),
(803,695,l),
(1047,695,l),
(1047,650,l)
);
}
);
width = 1063;
}
);
unicode = 85;
},
{
glyphname = V;
layers = (
{
layerId = "4bc33c8c-7854-4c4b-8534-8d0473767946";
name = Fore;
shapes = (
{
closed = 1;
nodes = (
(1047,695,l),
(1047,650,l),
(939,650,l),
(695,0,l),
(32,0,l),
(32,45,l),
(131,45,l),
(131,650,l),
(32,650,l),
(32,695,l),
(397,695,l),
(397,650,l),
(298,650,l),
(298,45,l),
(662,45,l),
(889,650,l),
(803,650,l),
(803,695,l)
);
}
);
width = 1040;
}
);
unicode = 86;
},
{
glyphname = W;
layers = (
{
layerId = "4bc33c8c-7854-4c4b-8534-8d0473767946";
name = Fore;
shapes = (
{
closed = 1;
nodes = (
(1232,45,l),
(1331,45,l),
(1331,0,l),
(32,0,l),
(32,45,l),
(131,45,l),
(131,650,l),
(32,650,l),
(32,695,l),
(398,695,l),
(398,650,l),
(298,650,l),
(298,45,l),
(659,45,l),
(659,650,l),
(560,650,l),
(560,695,l),
(803,695,l),
(803,650,l),
(704,650,l),
(704,45,l),
(1065,45,l),
(1065,650,l),
(966,650,l),
(966,695,l),
(1331,695,l),
(1331,650,l),
(1232,650,l)
);
}
);
width = 1363;
}
);
unicode = 87;
},
{
glyphname = X;
layers = (
{
layerId = "4bc33c8c-7854-4c4b-8534-8d0473767946";
name = Fore;
shapes = (
{
closed = 1;
nodes = (
(948,45,l),
(948,0,l),
(542,0,l),
(542,45,l),
(621,45,l),
(404,300,l),
(172,45,l),
(250,45,l),
(250,0,l),
(7,0,l),
(7,45,l),
(107,45,l),
(374,334,l),
(105,650,l),
(14,650,l),
(14,695,l),
(420,695,l),
(420,650,l),
(324,650,l),
(538,399,l),
(763,650,l),
(694,650,l),
(694,695,l),
(938,695,l),
(938,650,l),
(827,650,l),
(567,365,l),
(841,45,l)
);
}
);
width = 955;
}
);
unicode = 88;
},
{
glyphname = Y;
layers = (
{
layerId = "4bc33c8c-7854-4c4b-8534-8d0473767946";
name = Fore;
shapes = (
{
closed = 1;
nodes = (
(929,695,l),
(929,650,l),
(818,650,l),
(546,339,l),
(546,45,l),
(645,45,l),
(645,0,l),
(280,0,l),
(280,45,l),
(379,45,l),
(379,339,l),
(107,650,l),
(-5,650,l),
(-5,695,l),
(239,695,l),
(239,650,l),
(167,650,l),
(412,370,l),
(513,370,l),
(758,650,l),
(686,650,l),
(686,695,l)
);
}
);
width = 924;
}
);
unicode = 89;
},
{
glyphname = Z;
layers = (
{
layerId = "4bc33c8c-7854-4c4b-8534-8d0473767946";
name = Fore;
shapes = (
{
closed = 1;
nodes = (
(863,0,l),
(25,0,l),
(612,650,l),
(84,650,l),
(84,510,l),
(39,510,l),
(39,695,l),
(877,695,l),
(291,45,l),
(818,45,l),
(818,185,l),
(863,185,l)
);
}
);
width = 901;
}
);
unicode = 90;
},
{
glyphname = bracketleft;
layers = (
{
layerId = "4bc33c8c-7854-4c4b-8534-8d0473767946";
name = Fore;
shapes = (
{
closed = 1;
nodes = (
(237,-54,l),
(417,-54,l),
(417,-99,l),
(70,-99,l),
(70,767,l),
(417,767,l),
(417,722,l),
(237,722,l)
);
}
);
width = 438;
}
);
unicode = 91;
},
{
glyphname = backslash;
layers = (
{
layerId = "4bc33c8c-7854-4c4b-8534-8d0473767946";
name = Fore;
shapes = (
{
closed = 1;
nodes = (
(687,-147,l),
(499,-147,l),
(27,757,l),
(215,757,l)
);
}
);
width = 714;
}
);
unicode = 92;
},
{
glyphname = bracketright;
layers = (
{
layerId = "4bc33c8c-7854-4c4b-8534-8d0473767946";
name = Fore;
shapes = (
{
closed = 1;
nodes = (
(21,767,l),
(368,767,l),
(368,-99,l),
(21,-99,l),
(21,-54,l),
(201,-54,l),
(201,722,l),
(21,722,l)
);
}
);
width = 438;
}
);
unicode = 93;
},
{
glyphname = asciicircum;
layers = (
{
layerId = "4bc33c8c-7854-4c4b-8534-8d0473767946";
name = Fore;
shapes = (
{
closed = 1;
nodes = (
(414,318,l),
(324,494,l),
(235,318,l),
(49,318,l),
(256,729,l),
(464,318,l)
);
}
);
width = 505;
}
);
unicode = 94;
},
{
glyphname = underscore;
layers = (
{
layerId = "4bc33c8c-7854-4c4b-8534-8d0473767946";
name = Fore;
shapes = (
{
closed = 1;
nodes = (
(72,-97,l),
(72,-52,l),
(785,-52,l),
(785,-97,l)
);
}
);
width = 857;
}
);
unicode = 95;
},
{
glyphname = grave;
layers = (
{
layerId = "4bc33c8c-7854-4c4b-8534-8d0473767946";
name = Fore;
shapes = (
{
closed = 1;
nodes = (
(389,546,l),
(222,546,l),
(66,710,l),
(265,710,l)
);
}
);
width = 423;
}
);
unicode = 96;
},
{
glyphname = a;
layers = (
{
layerId = "4bc33c8c-7854-4c4b-8534-8d0473767946";
name = Fore;
shapes = (
{
closed = 1;
nodes = (
(778,45,l),
(778,0,l),
(55,0,l),
(55,257,l),
(512,257,l),
(512,424,l),
(100,424,l),
(100,347,l),
(55,347,l),
(55,469,l),
(679,469,l),
(679,45,l)
);
},
{
closed = 1;
nodes = (
(512,212,l),
(100,212,l),
(100,45,l),
(512,45,l)
);
}
);
width = 787;
}
);
unicode = 97;
},
{
glyphname = b;
layers = (
{
layerId = "4bc33c8c-7854-4c4b-8534-8d0473767946";
name = Fore;
shapes = (
{
closed = 1;
nodes = (
(698,0,l),
(60,0,l),
(60,650,l),
(-39,650,l),
(-39,695,l),
(227,695,l),
(227,469,l),
(698,469,l)
);
},
{
closed = 1;
nodes = (
(653,424,l),
(227,424,l),
(227,45,l),
(653,45,l)
);
}
);
width = 758;
}
);
unicode = 98;
},
{
glyphname = c;
layers = (
{
layerId = "4bc33c8c-7854-4c4b-8534-8d0473767946";
name = Fore;
shapes = (
{
closed = 1;
nodes = (
(684,122,l),
(684,0,l),
(60,0,l),
(60,469,l),
(684,469,l),
(684,347,l),
(639,347,l),
(639,424,l),
(227,424,l),
(227,45,l),
(639,45,l),
(639,122,l)
);
}
);
width = 733;
}
);
unicode = 99;
},
{
glyphname = d;
layers = (
{
layerId = "4bc33c8c-7854-4c4b-8534-8d0473767946";
name = Fore;
shapes = (
{
closed = 1;
nodes = (
(531,650,l),
(432,650,l),
(432,695,l),
(698,695,l),
(698,45,l),
(797,45,l),
(797,0,l),
(60,0,l),
(60,469,l),
(531,469,l)
);
},
{
closed = 1;
nodes = (
(531,45,l),
(531,424,l),
(105,424,l),
(105,45,l)
);
}
);
width = 817;
}
);
unicode = 100;
},
{
glyphname = e;
layers = (
{
layerId = "4bc33c8c-7854-4c4b-8534-8d0473767946";
name = Fore;
shapes = (
{
closed = 1;
nodes = (
(684,469,l),
(684,212,l),
(227,212,l),
(227,45,l),
(639,45,l),
(639,122,l),
(684,122,l),
(684,0,l),
(60,0,l),
(60,469,l)
);
},
{
closed = 1;
nodes = (
(227,257,l),
(639,257,l),
(639,424,l),
(227,424,l)
);
}
);
width = 739;
}
);
unicode = 101;
},
{
glyphname = f;
layers = (
{
layerId = "4bc33c8c-7854-4c4b-8534-8d0473767946";
name = Fore;
shapes = (
{
closed = 1;
nodes = (
(301,469,l),
(516,469,l),
(516,424,l),
(301,424,l),
(301,45,l),
(400,45,l),
(400,0,l),
(35,0,l),
(35,45,l),
(134,45,l),
(134,424,l),
(35,424,l),
(35,469,l),
(134,469,l),
(134,695,l),
(552,695,l),
(552,650,l),
(301,650,l)
);
}
);
width = 530;
}
);
unicode = 102;
},
{
glyphname = g;
layers = (
{
layerId = "4bc33c8c-7854-4c4b-8534-8d0473767946";
name = Fore;
shapes = (
{
closed = 1;
nodes = (
(60,-226,l),
(60,-104,l),
(105,-104,l),
(105,-181,l),
(531,-181,l),
(531,0,l),
(60,0,l),
(60,469,l),
(698,469,l),
(698,-226,l)
);
},
{
closed = 1;
nodes = (
(105,424,l),
(105,45,l),
(531,45,l),
(531,424,l)
);
}
);
width = 758;
}
);
unicode = 103;
},
{
glyphname = h;
layers = (
{
layerId = "4bc33c8c-7854-4c4b-8534-8d0473767946";
name = Fore;
shapes = (
{
closed = 1;
nodes = (
(850,0,l),
(591,0,l),
(591,45,l),
(698,45,l),
(698,424,l),
(286,424,l),
(286,45,l),
(385,45,l),
(385,0,l),
(20,0,l),
(20,45,l),
(119,45,l),
(119,650,l),
(20,650,l),
(20,695,l),
(286,695,l),
(286,469,l),
(743,469,l),
(743,45,l),
(850,45,l)
);
}
);
width = 866;
}
);
unicode = 104;
},
{
glyphname = i;
layers = (
{
layerId = "4bc33c8c-7854-4c4b-8534-8d0473767946";
name = Fore;
shapes = (
{
closed = 1;
nodes = (
(400,45,l),
(400,0,l),
(35,0,l),
(35,45,l),
(134,45,l),
(134,424,l),
(35,424,l),
(35,469,l),
(301,469,l),
(301,45,l)
);
},
{
closed = 1;
nodes = (
(127,542,l),
(127,695,l),
(308,695,l),
(308,542,l)
);
}
);
width = 420;
}
);
unicode = 105;
},
{
glyphname = j;
layers = (
{
layerId = "4bc33c8c-7854-4c4b-8534-8d0473767946";
name = Fore;
shapes = (
{
closed = 1;
nodes = (
(286,-226,l),
(-206,-226,l),
(-206,-104,l),
(-161,-104,l),
(-161,-181,l),
(119,-181,l),
(119,424,l),
(20,424,l),
(20,469,l),
(286,469,l)
);
},
{
closed = 1;
nodes = (
(112,542,l),
(112,695,l),
(293,695,l),
(293,542,l)
);
}
);
width = 345;
}
);
unicode = 106;
},
{
glyphname = k;
layers = (
{
layerId = "4bc33c8c-7854-4c4b-8534-8d0473767946";
name = Fore;
shapes = (
{
closed = 1;
nodes = (
(757,0,l),
(513,0,l),
(513,45,l),
(590,45,l),
(471,212,l),
(286,212,l),
(286,45,l),
(386,45,l),
(386,0,l),
(20,0,l),
(20,45,l),
(119,45,l),
(119,650,l),
(20,650,l),
(20,695,l),
(286,695,l),
(286,257,l),
(470,257,l),
(581,424,l),
(500,424,l),
(500,469,l),
(744,469,l),
(744,424,l),
(635,424,l),
(510,236,l),
(646,45,l),
(757,45,l)
);
}
);
width = 783;
}
);
unicode = 107;
},
{
glyphname = l;
layers = (
{
layerId = "4bc33c8c-7854-4c4b-8534-8d0473767946";
name = Fore;
shapes = (
{
closed = 1;
nodes = (
(385,45,l),
(385,0,l),
(20,0,l),
(20,45,l),
(119,45,l),
(119,650,l),
(20,650,l),
(20,695,l),
(286,695,l),
(286,45,l)
);
}
);
width = 405;
}
);
unicode = 108;
},
{
glyphname = m;
layers = (
{
layerId = "4bc33c8c-7854-4c4b-8534-8d0473767946";
name = Fore;
shapes = (
{
closed = 1;
nodes = (
(1180,0,l),
(921,0,l),
(921,45,l),
(1028,45,l),
(1028,424,l),
(683,424,l),
(683,45,l),
(790,45,l),
(790,0,l),
(531,0,l),
(531,45,l),
(638,45,l),
(638,424,l),
(301,424,l),
(301,45,l),
(400,45,l),
(400,0,l),
(35,0,l),
(35,45,l),
(134,45,l),
(134,424,l),
(35,424,l),
(35,469,l),
(1073,469,l),
(1073,45,l),
(1180,45,l)
);
}
);
width = 1196;
}
);
unicode = 109;
},
{
glyphname = n;
layers = (
{
layerId = "4bc33c8c-7854-4c4b-8534-8d0473767946";
name = Fore;
shapes = (
{
closed = 1;
nodes = (
(758,469,l),
(758,45,l),
(865,45,l),
(865,0,l),
(606,0,l),
(606,45,l),
(713,45,l),
(713,424,l),
(301,424,l),
(301,45,l),
(400,45,l),
(400,0,l),
(35,0,l),
(35,45,l),
(134,45,l),
(134,424,l),
(35,424,l),
(35,469,l)
);
}
);
width = 881;
}
);
unicode = 110;
},
{
glyphname = o;
layers = (
{
layerId = "4bc33c8c-7854-4c4b-8534-8d0473767946";
name = Fore;
shapes = (
{
closed = 1;
nodes = (
(60,0,l),
(60,469,l),
(684,469,l),
(684,0,l)
);
},
{
closed = 1;
nodes = (
(227,424,l),
(227,45,l),
(639,45,l),
(639,424,l)
);
}
);
width = 744;
}
);
unicode = 111;
},
{
glyphname = p;
layers = (
{
layerId = "4bc33c8c-7854-4c4b-8534-8d0473767946";
name = Fore;
shapes = (
{
closed = 1;
nodes = (
(119,-181,l),
(119,424,l),
(20,424,l),
(20,469,l),
(757,469,l),
(757,0,l),
(286,0,l),
(286,-181,l),
(385,-181,l),
(385,-226,l),
(20,-226,l),
(20,-181,l)
);
},
{
closed = 1;
nodes = (
(286,424,l),
(286,45,l),
(712,45,l),
(712,424,l)
);
}
);
width = 817;
}
);
unicode = 112;
},
{
glyphname = q;
layers = (
{
layerId = "4bc33c8c-7854-4c4b-8534-8d0473767946";
name = Fore;
shapes = (
{
closed = 1;
nodes = (
(432,-226,l),
(432,-181,l),
(531,-181,l),
(531,0,l),
(60,0,l),
(60,469,l),
(698,469,l),
(698,-181,l),
(797,-181,l),
(797,-226,l)
);
},
{
closed = 1;
nodes = (
(531,45,l),
(531,424,l),
(105,424,l),
(105,45,l)
);
}
);
width = 758;
}
);
unicode = 113;
},
{
glyphname = r;
layers = (
{
layerId = "4bc33c8c-7854-4c4b-8534-8d0473767946";
name = Fore;
shapes = (
{
closed = 1;
nodes = (
(671,348,l),
(626,348,l),
(626,424,l),
(301,424,l),
(301,45,l),
(400,45,l),
(400,0,l),
(35,0,l),
(35,45,l),
(134,45,l),
(134,424,l),
(35,424,l),
(35,469,l),
(671,469,l)
);
}
);
width = 695;
}
);
unicode = 114;
},
{
glyphname = s;
layers = (
{
layerId = "4bc33c8c-7854-4c4b-8534-8d0473767946";
name = Fore;
shapes = (
{
closed = 1;
nodes = (
(679,347,l),
(634,347,l),
(634,424,l),
(222,424,l),
(222,257,l),
(679,257,l),
(679,0,l),
(55,0,l),
(55,122,l),
(100,122,l),
(100,45,l),
(512,45,l),
(512,212,l),
(55,212,l),
(55,469,l),
(679,469,l)
);
}
);
width = 734;
}
);
unicode = 115;
},
{
glyphname = t;
layers = (
{
layerId = "4bc33c8c-7854-4c4b-8534-8d0473767946";
name = Fore;
shapes = (
{
closed = 1;
nodes = (
(479,0,l),
(119,0,l),
(119,424,l),
(20,424,l),
(20,469,l),
(119,469,l),
(119,695,l),
(286,695,l),
(286,469,l),
(479,469,l),
(479,424,l),
(286,424,l),
(286,45,l),
(479,45,l)
);
}
);
width = 500;
}
);
unicode = 116;
},
{
glyphname = u;
layers = (
{
layerId = "4bc33c8c-7854-4c4b-8534-8d0473767946";
name = Fore;
shapes = (
{
closed = 1;
nodes = (
(850,0,l),
(119,0,l),
(119,424,l),
(20,424,l),
(20,469,l),
(286,469,l),
(286,45,l),
(698,45,l),
(698,424,l),
(591,424,l),
(591,469,l),
(743,469,l),
(743,45,l),
(850,45,l)
);
}
);
width = 866;
}
);
unicode = 117;
},
{
glyphname = v;
layers = (
{
layerId = "4bc33c8c-7854-4c4b-8534-8d0473767946";
name = Fore;
shapes = (
{
closed = 1;
nodes = (
(887,469,l),
(887,424,l),
(779,424,l),
(622,0,l),
(35,0,l),
(35,45,l),
(134,45,l),
(134,424,l),
(35,424,l),
(35,469,l),
(400,469,l),
(400,424,l),
(301,424,l),
(301,45,l),
(589,45,l),
(729,424,l),
(643,424,l),
(643,469,l)
);
}
);
width = 894;
}
);
unicode = 118;
},
{
glyphname = w;
layers = (
{
layerId = "4bc33c8c-7854-4c4b-8534-8d0473767946";
name = Fore;
shapes = (
{
closed = 1;
nodes = (
(1108,45,l),
(1207,45,l),
(1207,0,l),
(35,0,l),
(35,45,l),
(134,45,l),
(134,424,l),
(35,424,l),
(35,469,l),
(401,469,l),
(401,424,l),
(301,424,l),
(301,45,l),
(599,45,l),
(599,424,l),
(500,424,l),
(500,469,l),
(743,469,l),
(743,424,l),
(644,424,l),
(644,45,l),
(941,45,l),
(941,424,l),
(842,424,l),
(842,469,l),
(1207,469,l),
(1207,424,l),
(1108,424,l)
);
}
);
width = 1242;
}
);
unicode = 119;
},
{
glyphname = x;
layers = (
{
layerId = "4bc33c8c-7854-4c4b-8534-8d0473767946";
name = Fore;
shapes = (
{
closed = 1;
nodes = (
(803,0,l),
(398,0,l),
(398,45,l),
(488,45,l),
(333,215,l),
(168,45,l),
(269,45,l),
(269,0,l),
(25,0,l),
(25,45,l),
(106,45,l),
(303,248,l),
(142,424,l),
(40,424,l),
(40,469,l),
(446,469,l),
(446,424,l),
(355,424,l),
(501,265,l),
(655,424,l),
(546,424,l),
(546,469,l),
(791,469,l),
(791,424,l),
(718,424,l),
(531,232,l),
(702,45,l),
(803,45,l)
);
}
);
width = 829;
}
);
unicode = 120;
},
{
glyphname = y;
layers = (
{
layerId = "4bc33c8c-7854-4c4b-8534-8d0473767946";
name = Fore;
shapes = (
{
closed = 1;
nodes = (
(761,424,l),
(761,-226,l),
(123,-226,l),
(123,-104,l),
(168,-104,l),
(168,-181,l),
(594,-181,l),
(594,0,l),
(123,0,l),
(123,424,l),
(16,424,l),
(16,469,l),
(275,469,l),
(275,424,l),
(168,424,l),
(168,45,l),
(594,45,l),
(594,424,l),
(495,424,l),
(495,469,l),
(860,469,l),
(860,424,l)
);
}
);
width = 880;
}
);
unicode = 121;
},
{
glyphname = z;
layers = (
{
layerId = "4bc33c8c-7854-4c4b-8534-8d0473767946";
name = Fore;
shapes = (
{
closed = 1;
nodes = (
(659,122,l),
(659,0,l),
(28,0,l),
(408,424,l),
(89,424,l),
(89,347,l),
(44,347,l),
(44,469,l),
(673,469,l),
(294,45,l),
(614,45,l),
(614,122,l)
);
}
);
width = 701;
}
);
unicode = 122;
},
{
glyphname = braceleft;
layers = (
{
layerId = "4bc33c8c-7854-4c4b-8534-8d0473767946";
name = Fore;
shapes = (
{
closed = 1;
nodes = (
(264,38,l),
(370,-47,l),
(444,-47,l),
(444,-92,l),
(353,-92,l),
(97,115,l),
(97,312,l),
(20,312,l),
(20,357,l),
(97,357,l),
(97,554,l),
(353,761,l),
(444,761,l),
(444,716,l),
(369,716,l),
(264,631,l)
);
}
);
width = 465;
}
);
unicode = 123;
},
{
glyphname = bar;
layers = (
{
layerId = "4bc33c8c-7854-4c4b-8534-8d0473767946";
name = Fore;
shapes = (
{
closed = 1;
nodes = (
(72,-185,l),
(72,750,l),
(239,750,l),
(239,-185,l)
);
}
);
width = 311;
}
);
unicode = 124;
},
{
glyphname = braceright;
layers = (
{
layerId = "4bc33c8c-7854-4c4b-8534-8d0473767946";
name = Fore;
shapes = (
{
closed = 1;
nodes = (
(21,716,l),
(21,761,l),
(112,761,l),
(368,554,l),
(368,357,l),
(445,357,l),
(445,312,l),
(368,312,l),
(368,115,l),
(112,-92,l),
(21,-92,l),
(21,-47,l),
(95,-47,l),
(201,38,l),
(201,631,l),
(96,716,l)
);
}
);
width = 465;
}
);
unicode = 125;
},
{
glyphname = asciitilde;
layers = (
{
layerId = "4bc33c8c-7854-4c4b-8534-8d0473767946";
name = Fore;
shapes = (
{
closed = 1;
nodes = (
(469,289,l),
(318,392,l),
(220,289,l),
(53,289,l),
(177,453,l),
(317,453,l),
(476,343,l),
(560,453,l),
(759,453,l),
(603,289,l)
);
}
);
width = 784;
}
);
unicode = 126;
},
{
glyphname = cent;
layers = (
{
layerId = "4bc33c8c-7854-4c4b-8534-8d0473767946";
name = Fore;
shapes = (
{
closed = 1;
nodes = (
(569,650,l),
(318,650,l),
(318,294,l),
(569,294,l),
(569,378,l),
(614,378,l),
(614,249,l),
(420,249,l),
(420,148,l),
(375,148,l),
(375,249,l),
(52,249,l),
(52,294,l),
(151,294,l),
(151,650,l),
(52,650,l),
(52,695,l),
(375,695,l),
(375,796,l),
(420,796,l),
(420,695,l),
(614,695,l),
(614,566,l),
(569,566,l)
);
}
);
width = 672;
}
);
unicode = 162;
},
{
glyphname = sterling;
layers = (
{
layerId = "4bc33c8c-7854-4c4b-8534-8d0473767946";
name = Fore;
shapes = (
{
closed = 1;
nodes = (
(803,510,l),
(758,510,l),
(758,650,l),
(317,650,l),
(317,296,l),
(507,296,l),
(507,251,l),
(317,251,l),
(317,45,l),
(726,45,l),
(726,0,l),
(50,0,l),
(50,45,l),
(150,45,l),
(150,251,l),
(50,251,l),
(50,296,l),
(150,296,l),
(150,695,l),
(803,695,l)
);
}
);
width = 849;
}
);
unicode = 163;
},
{
glyphname = currency;
layers = (
{
layerId = "4bc33c8c-7854-4c4b-8534-8d0473767946";
name = Fore;
shapes = (
{
closed = 1;
nodes = (
(505,256,l),
(613,148,l),
(581,116,l),
(460,237,l),
(460,421,l),
(581,542,l),
(613,510,l),
(505,403,l)
);
},
{
closed = 1;
nodes = (
(89,116,l),
(57,148,l),
(165,257,l),
(165,402,l),
(57,510,l),
(89,542,l),
(210,421,l),
(210,238,l)
);
},
{
closed = 1;
nodes = (
(122,575,l),
(154,607,l),
(262,499,l),
(408,499,l),
(516,607,l),
(548,575,l),
(426,454,l),
(244,454,l)
);
},
{
closed = 1;
nodes = (
(548,83,l),
(516,51,l),
(408,159,l),
(262,159,l),
(154,51,l),
(122,83,l),
(243,204,l),
(427,204,l)
);
}
);
width = 670;
}
);
unicode = 164;
},
{
glyphname = yen;
layers = (
{
layerId = "4bc33c8c-7854-4c4b-8534-8d0473767946";
name = Fore;
shapes = (
{
closed = 1;
nodes = (
(968,650,l),
(857,650,l),
(655,419,l),
(777,419,l),
(777,374,l),
(616,374,l),
(585,339,l),
(585,285,l),
(777,285,l),
(777,240,l),
(585,240,l),
(585,45,l),
(684,45,l),
(684,0,l),
(319,0,l),
(319,45,l),
(418,45,l),
(418,240,l),
(226,240,l),
(226,285,l),
(418,285,l),
(418,339,l),
(388,374,l),
(226,374,l),
(226,419,l),
(348,419,l),
(146,650,l),
(34,650,l),
(34,695,l),
(278,695,l),
(278,650,l),
(206,650,l),
(451,370,l),
(552,370,l),
(797,650,l),
(725,650,l),
(725,695,l),
(968,695,l)
);
}
);
width = 1002;
}
);
unicode = 165;
},
{
glyphname = brokenbar;
layers = (
{
layerId = "4bc33c8c-7854-4c4b-8534-8d0473767946";
name = Fore;
shapes = (
{
closed = 1;
nodes = (
(117,459,l),
(72,459,l),
(72,834,l),
(117,834,l)
);
},
{
closed = 1;
nodes = (
(117,-48,l),
(72,-48,l),
(72,327,l),
(117,327,l)
);
}
);
width = 189;
}
);
unicode = 166;
},
{
glyphname = section;
layers = (
{
layerId = "4bc33c8c-7854-4c4b-8534-8d0473767946";
name = Fore;
shapes = (
{
closed = 1;
nodes = (
(656,650,l),
(230,650,l),
(230,454,l),
(701,454,l),
(701,168,l),
(534,168,l),
(534,409,l),
(63,409,l),
(63,695,l),
(701,695,l),
(701,552,l),
(656,552,l)
);
},
{
closed = 1;
nodes = (
(108,-118,l),
(534,-118,l),
(534,78,l),
(63,78,l),
(63,364,l),
(230,364,l),
(230,123,l),
(701,123,l),
(701,-163,l),
(63,-163,l),
(63,-20,l),
(108,-20,l)
);
}
);
width = 764;
}
);
unicode = 167;
},
{
glyphname = dieresis;
layers = (
{
layerId = "4bc33c8c-7854-4c4b-8534-8d0473767946";
name = Fore;
shapes = (
{
closed = 1;
nodes = (
(95,546,l),
(95,688,l),
(260,688,l),
(260,546,l)
);
},
{
closed = 1;
nodes = (
(326,546,l),
(326,688,l),
(491,688,l),
(491,546,l)
);
}
);
width = 582;
}
);
unicode = 168;
},
{
glyphname = copyright;
layers = (
{
layerId = "4bc33c8c-7854-4c4b-8534-8d0473767946";
name = Fore;
shapes = (
{
closed = 1;
nodes = (
(69,30,l),
(69,663,l),
(755,663,l),
(755,30,l)
);
},
{
closed = 1;
nodes = (
(710,75,l),
(710,618,l),
(114,618,l),
(114,75,l)
);
},
{
closed = 1;
nodes = (
(652,560,l),
(172,560,l),
(172,133,l),
(652,133,l),
(652,250,l),
(607,250,l),
(607,178,l),
(339,178,l),
(339,515,l),
(607,515,l),
(607,442,l),
(652,442,l)
);
}
);
width = 824;
}
);
unicode = 169;
},
{
glyphname = ordfeminine;
layers = (
{
layerId = "4bc33c8c-7854-4c4b-8534-8d0473767946";
name = Fore;
shapes = (
{
closed = 1;
nodes = (
(429,416,l),
(316,416,l),
(316,461,l),
(350,461,l),
(350,515,l),
(212,515,l),
(212,461,l),
(239,461,l),
(239,416,l),
(66,416,l),
(66,461,l),
(95,461,l),
(95,616,l),
(66,616,l),
(66,661,l),
(396,661,l),
(396,461,l),
(429,461,l)
);
},
{
closed = 1;
nodes = (
(350,616,l),
(212,616,l),
(212,561,l),
(350,561,l)
);
}
);
width = 486;
}
);
unicode = 170;
},
{
glyphname = guillemotleft;
layers = (
{
layerId = "4bc33c8c-7854-4c4b-8534-8d0473767946";
name = Fore;
shapes = (
{
closed = 1;
nodes = (
(691,469,l),
(515,379,l),
(691,290,l),
(691,104,l),
(280,311,l),
(691,519,l)
);
},
{
closed = 1;
nodes = (
(136,311,l),
(446,154,l),
(446,103,l),
(35,310,l),
(446,518,l),
(446,468,l)
);
}
);
width = 759;
}
);
unicode = 171;
},
{
glyphname = logicalnot;
layers = (
{
layerId = "4bc33c8c-7854-4c4b-8534-8d0473767946";
name = Fore;
shapes = (
{
closed = 1;
nodes = (
(533,252,l),
(488,252,l),
(488,344,l),
(54,344,l),
(54,497,l),
(533,497,l)
);
}
);
width = 596;
}
);
unicode = 172;
},
{
glyphname = registered;
layers = (
{
layerId = "4bc33c8c-7854-4c4b-8534-8d0473767946";
name = Fore;
shapes = (
{
closed = 1;
nodes = (
(755,30,l),
(69,30,l),
(69,663,l),
(755,663,l)
);
},
{
closed = 1;
nodes = (
(114,618,l),
(114,75,l),
(710,75,l),
(710,618,l)
);
},
{
closed = 1;
nodes = (
(652,307,o),
(652,256,q),
(652,133,l),
(606,133,l),
(606,256,l),
(606,281,o),
(589,298,q),
(572,315,o),
(548,315,q),
(339,315,l),
(339,133,l),
(172,133,l),
(172,560,l),
(652,560,l),
(652,420,l),
(652,369,o),
(612,338,q)
);
},
{
closed = 1;
nodes = (
(339,361,l),
(548,361,l),
(572,361,o),
(589,378,q),
(606,395,o),
(606,420,q),
(606,515,l),
(339,515,l)
);
}
);
width = 824;
}
);
unicode = 174;
},
{
glyphname = degree;
layers = (
{
layerId = "4bc33c8c-7854-4c4b-8534-8d0473767946";
name = Fore;
shapes = (
{
closed = 1;
nodes = (
(65,459,l),
(65,664,l),
(278,664,l),
(278,459,l)
);
}
);
width = 343;
}
);
unicode = 176;
},
{
glyphname = plusminus;
layers = (
{
layerId = "4bc33c8c-7854-4c4b-8534-8d0473767946";
name = Fore;
shapes = (
{
closed = 1;
nodes = (
(524,356,l),
(313,356,l),
(313,199,l),
(268,199,l),
(268,356,l),
(57,356,l),
(57,509,l),
(268,509,l),
(268,666,l),
(313,666,l),
(313,509,l),
(524,509,l)
);
},
{
closed = 1;
nodes = (
(57,0,l),
(57,153,l),
(524,153,l),
(524,0,l)
);
}
);
width = 581;
}
);
unicode = 177;
},
{
glyphname = twosuperior;
layers = (
{
layerId = "4bc33c8c-7854-4c4b-8534-8d0473767946";
name = Fore;
shapes = (
{
closed = 1;
nodes = (
(195,365,l),
(450,365,l),
(450,425,l),
(495,425,l),
(495,320,l),
(65,320,l),
(65,530,l),
(364,530,l),
(364,650,l),
(110,650,l),
(110,590,l),
(65,590,l),
(65,695,l),
(495,695,l),
(495,485,l),
(195,485,l)
);
}
);
width = 561;
}
);
unicode = 178;
},
{
glyphname = threesuperior;
layers = (
{
layerId = "4bc33c8c-7854-4c4b-8534-8d0473767946";
name = Fore;
shapes = (
{
closed = 1;
nodes = (
(495,320,l),
(65,320,l),
(65,425,l),
(110,425,l),
(110,365,l),
(364,365,l),
(364,485,l),
(179,485,l),
(179,530,l),
(364,530,l),
(364,650,l),
(110,650,l),
(110,590,l),
(65,590,l),
(65,695,l),
(495,695,l)
);
}
);
width = 561;
}
);
unicode = 179;
},
{
glyphname = acute;
layers = (
{
layerId = "4bc33c8c-7854-4c4b-8534-8d0473767946";
name = Fore;
shapes = (
{
closed = 1;
nodes = (
(233,546,l),
(66,546,l),
(190,710,l),
(389,710,l)
);
}
);
width = 451;
}
);
unicode = 180;
},
{
glyphname = mu;
layers = (
{
layerId = "4bc33c8c-7854-4c4b-8534-8d0473767946";
name = Fore;
shapes = (
{
closed = 1;
nodes = (
(976,650,l),
(877,650,l),
(877,0,l),
(227,0,l),
(227,-125,l),
(326,-125,l),
(326,-170,l),
(-39,-170,l),
(-39,-125,l),
(60,-125,l),
(60,650,l),
(-39,650,l),
(-39,695,l),
(326,695,l),
(326,650,l),
(227,650,l),
(227,45,l),
(832,45,l),
(832,650,l),
(732,650,l),
(732,695,l),
(976,695,l)
);
}
);
width = 937;
}
);
unicode = 181;
},
{
glyphname = paragraph;
layers = (
{
layerId = "4bc33c8c-7854-4c4b-8534-8d0473767946";
name = Fore;
shapes = (
{
closed = 1;
nodes = (
(589,-122,l),
(543,-122,l),
(543,650,l),
(467,650,l),
(467,-122,l),
(422,-122,l),
(422,325,l),
(50,325,l),
(50,695,l),
(688,695,l),
(688,650,l),
(589,650,l)
);
}
);
width = 730;
}
);
unicode = 182;
},
{
glyphname = periodcentered;
layers = (
{
layerId = "4bc33c8c-7854-4c4b-8534-8d0473767946";
name = Fore;
shapes = (
{
closed = 1;
nodes = (
(59,273,l),
(59,426,l),
(251,426,l),
(251,273,l)
);
}
);
width = 310;
}
);
unicode = 183;
},
{
glyphname = cedilla;
layers = (
{
layerId = "4bc33c8c-7854-4c4b-8534-8d0473767946";
name = Fore;
shapes = (
{
closed = 1;
nodes = (
(284,-183,l),
(96,-183,l),
(215,45,l),
(403,45,l)
);
}
);
width = 541;
}
);
unicode = 184;
},
{
glyphname = onesuperior;
layers = (
{
layerId = "4bc33c8c-7854-4c4b-8534-8d0473767946";
name = Fore;
shapes = (
{
closed = 1;
nodes = (
(394,320,l),
(62,320,l),
(62,365,l),
(174,365,l),
(174,650,l),
(62,650,l),
(62,695,l),
(305,695,l),
(305,365,l),
(394,365,l)
);
}
);
width = 437;
}
);
unicode = 185;
},
{
glyphname = ordmasculine;
layers = (
{
layerId = "4bc33c8c-7854-4c4b-8534-8d0473767946";
name = Fore;
shapes = (
{
closed = 1;
nodes = (
(366,416,l),
(65,416,l),
(65,661,l),
(366,661,l)
);
},
{
closed = 1;
nodes = (
(182,616,l),
(182,461,l),
(320,461,l),
(320,616,l)
);
}
);
width = 431;
}
);
unicode = 186;
},
{
glyphname = guillemotright;
layers = (
{
layerId = "4bc33c8c-7854-4c4b-8534-8d0473767946";
name = Fore;
shapes = (
{
closed = 1;
nodes = (
(69,153,l),
(245,243,l),
(69,332,l),
(69,518,l),
(480,311,l),
(69,103,l)
);
},
{
closed = 1;
nodes = (
(314,154,l),
(624,311,l),
(314,468,l),
(314,519,l),
(725,312,l),
(314,104,l)
);
}
);
width = 764;
}
);
unicode = 187;
},
{
glyphname = onequarter;
layers = (
{
layerId = "4bc33c8c-7854-4c4b-8534-8d0473767946";
name = Fore;
shapes = (
{
closed = 1;
nodes = (
(1214,375,l),
(1214,0,l),
(1083,0,l),
(1083,165,l),
(784,165,l),
(784,375,l),
(829,375,l),
(829,210,l),
(1083,210,l),
(1083,375,l)
);
},
{
closed = 1;
nodes = (
(379,320,l),
(47,320,l),
(47,365,l),
(159,365,l),
(159,650,l),
(47,650,l),
(47,695,l),
(290,695,l),
(290,365,l),
(379,365,l)
);
},
{
closed = 1;
nodes = (
(363,-44,l),
(193,-44,l),
(793,738,l),
(963,738,l)
);
}
);
width = 1265;
}
);
unicode = 188;
},
{
glyphname = threequarters;
layers = (
{
layerId = "4bc33c8c-7854-4c4b-8534-8d0473767946";
name = Fore;
shapes = (
{
closed = 1;
nodes = (
(1333,0,l),
(1202,0,l),
(1202,165,l),
(903,165,l),
(903,375,l),
(948,375,l),
(948,210,l),
(1202,210,l),
(1202,375,l),
(1333,375,l)
);
},
{
closed = 1;
nodes = (
(488,-44,l),
(318,-44,l),
(918,738,l),
(1088,738,l)
);
},
{
closed = 1;
nodes = (
(479,320,l),
(49,320,l),
(49,425,l),
(94,425,l),
(94,365,l),
(348,365,l),
(348,485,l),
(163,485,l),
(163,530,l),
(348,530,l),
(348,650,l),
(94,650,l),
(94,590,l),
(49,590,l),
(49,695,l),
(479,695,l)
);
}
);
width = 1382;
}
);
unicode = 190;
},
{
glyphname = AE;
layers = (
{
layerId = "4bc33c8c-7854-4c4b-8534-8d0473767946";
name = Fore;
shapes = (
{
closed = 1;
nodes = (
(1607,650,l),
(1002,650,l),
(1002,370,l),
(1444,370,l),
(1444,469,l),
(1490,469,l),
(1490,226,l),
(1444,226,l),
(1444,325,l),
(1002,325,l),
(1002,45,l),
(1607,45,l),
(1607,185,l),
(1652,185,l),
(1652,0,l),
(736,0,l),
(736,45,l),
(835,45,l),
(835,325,l),
(258,325,l),
(153,45,l),
(239,45,l),
(239,0,l),
(-5,0,l),
(-5,45,l),
(103,45,l),
(347,695,l),
(1652,695,l),
(1652,510,l),
(1607,510,l)
);
},
{
closed = 1;
nodes = (
(835,650,l),
(380,650,l),
(275,370,l),
(835,370,l)
);
}
);
width = 1701;
}
);
unicode = 198;
},
{
glyphname = Ccedilla;
layers = (
{
layerId = "4bc33c8c-7854-4c4b-8534-8d0473767946";
name = Fore;
shapes = (
{
closed = 1;
nodes = (
(855,650,l),
(298,650,l),
(298,45,l),
(855,45,l),
(855,185,l),
(900,185,l),
(900,0,l),
(640,0,l),
(545,-183,l),
(357,-183,l),
(452,0,l),
(32,0,l),
(32,45,l),
(131,45,l),
(131,650,l),
(32,650,l),
(32,695,l),
(900,695,l),
(900,510,l),
(855,510,l)
);
}
);
width = 951;
}
);
unicode = 199;
},
{
glyphname = Eth;
layers = (
{
layerId = "4bc33c8c-7854-4c4b-8534-8d0473767946";
name = Fore;
shapes = (
{
closed = 1;
nodes = (
(864,695,o),
(906.5,652.5,q),
(949,610,o),
(949,550,q),
(949,144,l),
(949,85,o),
(906.5,42.5,q),
(864,0,o),
(805,0,q),
(33,0,l),
(33,45,l),
(132,45,l),
(132,325,l),
(33,325,l),
(33,370,l),
(132,370,l),
(132,650,l),
(33,650,l),
(33,695,l),
(805,695,l)
);
},
{
closed = 1;
nodes = (
(904,591,o),
(874.5,620.5,q),
(845,650,o),
(805,650,q),
(299,650,l),
(299,370,l),
(521,370,l),
(521,325,l),
(299,325,l),
(299,45,l),
(805,45,l),
(845,45,o),
(874.5,74.5,q),
(904,104,o),
(904,144,q),
(904,550,l)
);
}
);
width = 1009;
}
);
unicode = 208;
},
{
glyphname = multiply;
layers = (
{
layerId = "4bc33c8c-7854-4c4b-8534-8d0473767946";
name = Fore;
shapes = (
{
closed = 1;
nodes = (
(512,125,l),
(355,265,l),
(173,125,l),
(98,125,l),
(321,296,l),
(48,539,l),
(298,539,l),
(455,400,l),
(638,539,l),
(713,539,l),
(490,369,l),
(762,125,l)
);
}
);
width = 810;
}
);
unicode = 215;
},
{
glyphname = Oslash;
layers = (
{
layerId = "4bc33c8c-7854-4c4b-8534-8d0473767946";
name = Fore;
shapes = (
{
closed = 1;
nodes = (
(224,0,l),
(94,-129,l),
(62,-97,l),
(160,0,l),
(66,0,l),
(66,695,l),
(858,695,l),
(939,775,l),
(970,743,l),
(882,655,l),
(882,0,l)
);
},
{
closed = 1;
nodes = (
(813,650,l),
(233,650,l),
(233,73,l)
);
},
{
closed = 1;
nodes = (
(837,611,l),
(269,45,l),
(837,45,l)
);
}
);
width = 976;
}
);
unicode = 216;
},
{
glyphname = Thorn;
layers = (
{
layerId = "4bc33c8c-7854-4c4b-8534-8d0473767946";
name = Fore;
shapes = (
{
closed = 1;
nodes = (
(298,45,l),
(398,45,l),
(398,0,l),
(32,0,l),
(32,45,l),
(131,45,l),
(131,650,l),
(32,650,l),
(32,695,l),
(397,695,l),
(397,650,l),
(298,650,l),
(298,546,l),
(917,546,l),
(917,176,l),
(298,176,l)
);
},
{
closed = 1;
nodes = (
(872,221,l),
(872,501,l),
(298,501,l),
(298,221,l)
);
}
);
width = 963;
}
);
unicode = 222;
},
{
glyphname = germandbls;
layers = (
{
layerId = "4bc33c8c-7854-4c4b-8534-8d0473767946";
name = Fore;
shapes = (
{
closed = 1;
nodes = (
(949,379,o),
(909,348,q),
(949,317,o),
(949,266,q),
(949,0,l),
(430,0,l),
(430,45,l),
(903,45,l),
(903,266,l),
(903,291,o),
(886,308,q),
(869,325,o),
(845,325,q),
(430,325,l),
(430,371,l),
(845,371,l),
(869,371,o),
(886,388,q),
(903,405,o),
(903,430,q),
(903,650,l),
(299,650,l),
(299,-81,l),
(33,-81,l),
(33,-36,l),
(132,-36,l),
(132,650,l),
(33,650,l),
(33,695,l),
(949,695,l),
(949,430,l)
);
}
);
width = 1014;
}
);
unicode = 223;
},
{
glyphname = ae;
layers = (
{
layerId = "4bc33c8c-7854-4c4b-8534-8d0473767946";
name = Fore;
shapes = (
{
closed = 1;
nodes = (
(512,257,l),
(512,424,l),
(100,424,l),
(100,347,l),
(55,347,l),
(55,469,l),
(1136,469,l),
(1136,212,l),
(679,212,l),
(679,45,l),
(1091,45,l),
(1091,122,l),
(1136,122,l),
(1136,0,l),
(55,0,l),
(55,257,l)
);
},
{
closed = 1;
nodes = (
(679,257,l),
(1091,257,l),
(1091,424,l),
(679,424,l)
);
},
{
closed = 1;
nodes = (
(512,212,l),
(100,212,l),
(100,45,l),
(512,45,l)
);
}
);
width = 1191;
}
);
unicode = 230;
},
{
glyphname = ccedilla;
layers = (
{
layerId = "4bc33c8c-7854-4c4b-8534-8d0473767946";
name = Fore;
shapes = (
{
closed = 1;
nodes = (
(684,122,l),
(684,0,l),
(504,0,l),
(409,-183,l),
(221,-183,l),
(316,0,l),
(60,0,l),
(60,469,l),
(684,469,l),
(684,347,l),
(639,347,l),
(639,424,l),
(227,424,l),
(227,45,l),
(639,45,l),
(639,122,l)
);
},
{
closed = 1;
nodes = (
(453,0,l),
(368,0,l),
(295,-138,l),
(381,-138,l)
);
}
);
width = 733;
}
);
unicode = 231;
},
{
glyphname = eth;
layers = (
{
layerId = "4bc33c8c-7854-4c4b-8534-8d0473767946";
name = Fore;
shapes = (
{
closed = 1;
nodes = (
(684,0,l),
(60,0,l),
(60,469,l),
(613,469,l),
(367,631,l),
(307,559,l),
(281,581,l),
(338,650,l),
(230,722,l),
(259,757,l),
(366,684,l),
(441,774,l),
(468,752,l),
(395,665,l),
(684,469,l)
);
},
{
closed = 1;
nodes = (
(227,424,l),
(227,45,l),
(639,45,l),
(639,424,l)
);
}
);
width = 744;
}
);
unicode = 240;
},
{
glyphname = divide;
layers = (
{
layerId = "4bc33c8c-7854-4c4b-8534-8d0473767946";
name = Fore;
shapes = (
{
closed = 1;
nodes = (
(592,256,l),
(51,256,l),
(51,409,l),
(592,409,l)
);
},
{
closed = 1;
nodes = (
(417,218,l),
(417,65,l),
(225,65,l),
(225,218,l)
);
},
{
closed = 1;
nodes = (
(225,448,l),
(225,601,l),
(417,601,l),
(417,448,l)
);
}
);
width = 643;
}
);
unicode = 247;
},
{
glyphname = oslash;
layers = (
{
layerId = "4bc33c8c-7854-4c4b-8534-8d0473767946";
name = Fore;
shapes = (
{
closed = 1;
nodes = (
(684,435,l),
(684,0,l),
(211,0,l),
(96,-106,l),
(66,-73,l),
(145,0,l),
(60,0,l),
(60,469,l),
(655,469,l),
(731,538,l),
(760,505,l)
);
},
{
closed = 1;
nodes = (
(606,424,l),
(227,424,l),
(227,76,l)
);
},
{
closed = 1;
nodes = (
(260,45,l),
(639,45,l),
(639,393,l)
);
}
);
width = 744;
}
);
unicode = 248;
},
{
glyphname = thorn;
layers = (
{
layerId = "4bc33c8c-7854-4c4b-8534-8d0473767946";
name = Fore;
shapes = (
{
closed = 1;
nodes = (
(227,-181,l),
(326,-181,l),
(326,-226,l),
(-39,-226,l),
(-39,-181,l),
(60,-181,l),
(60,650,l),
(-39,650,l),
(-39,695,l),
(227,695,l),
(227,469,l),
(698,469,l),
(698,0,l),
(227,0,l)
);
},
{
closed = 1;
nodes = (
(653,45,l),
(653,424,l),
(227,424,l),
(227,45,l)
);
}
);
width = 758;
}
);
unicode = 254;
},
{
glyphname = dotlessi;
layers = (
{
layerId = "4bc33c8c-7854-4c4b-8534-8d0473767946";
name = Fore;
shapes = (
{
closed = 1;
nodes = (
(400,45,l),
(400,0,l),
(35,0,l),
(35,45,l),
(134,45,l),
(134,424,l),
(35,424,l),
(35,469,l),
(301,469,l),
(301,45,l)
);
}
);
width = 420;
}
);
unicode = 305;
},
{
glyphname = OE;
layers = (
{
layerId = "4bc33c8c-7854-4c4b-8534-8d0473767946";
name = Fore;
shapes = (
{
closed = 1;
nodes = (
(1609,650,l),
(1004,650,l),
(1004,370,l),
(1446,370,l),
(1446,469,l),
(1492,469,l),
(1492,226,l),
(1446,226,l),
(1446,325,l),
(1004,325,l),
(1004,45,l),
(1609,45,l),
(1609,185,l),
(1654,185,l),
(1654,0,l),
(66,0,l),
(66,695,l),
(1654,695,l),
(1654,510,l),
(1609,510,l)
);
},
{
closed = 1;
nodes = (
(837,45,l),
(837,650,l),
(233,650,l),
(233,45,l)
);
}
);
width = 1703;
}
);
unicode = 338;
},
{
glyphname = oe;
layers = (
{
layerId = "4bc33c8c-7854-4c4b-8534-8d0473767946";
name = Fore;
shapes = (
{
closed = 1;
nodes = (
(1263,469,l),
(1263,212,l),
(806,212,l),
(806,45,l),
(1218,45,l),
(1218,122,l),
(1263,122,l),
(1263,0,l),
(60,0,l),
(60,469,l)
);
},
{
closed = 1;
nodes = (
(227,424,l),
(227,45,l),
(639,45,l),
(639,424,l)
);
},
{
closed = 1;
nodes = (
(806,257,l),
(1218,257,l),
(1218,424,l),
(806,424,l)
);
}
);
width = 1318;
}
);
unicode = 339;
},
{
glyphname = Scaron;
layers = (
{
layerId = "4bc33c8c-7854-4c4b-8534-8d0473767946";
name = Fore;
shapes = (
{
closed = 1;
nodes = (
(357,905,l),
(424,810,l),
(515,905,l),
(682,905,l),
(558,741,l),
(418,741,l),
(301,905,l)
);
},
{
closed = 1;
nodes = (
(536,786,l),
(592,860,l),
(538,860,l),
(465,786,l)
);
},
{
closed = 1;
nodes = (
(878,510,l),
(833,510,l),
(833,650,l),
(229,650,l),
(229,370,l),
(878,370,l),
(878,0,l),
(62,0,l),
(62,185,l),
(107,185,l),
(107,45,l),
(711,45,l),
(711,325,l),
(62,325,l),
(62,695,l),
(878,695,l)
);
}
);
width = 940;
}
);
unicode = 352;
},
{
glyphname = Zcaron;
layers = (
{
layerId = "4bc33c8c-7854-4c4b-8534-8d0473767946";
name = Fore;
shapes = (
{
closed = 1;
nodes = (
(307,910,l),
(374,815,l),
(465,910,l),
(632,910,l),
(508,746,l),
(368,746,l),
(251,910,l)
);
},
{
closed = 1;
nodes = (
(863,0,l),
(25,0,l),
(612,650,l),
(84,650,l),
(84,510,l),
(39,510,l),
(39,695,l),
(877,695,l),
(291,45,l),
(818,45,l),
(818,185,l),
(863,185,l)
);
}
);
width = 901;
}
);
unicode = 381;
},
{
glyphname = florin;
layers = (
{
layerId = "4bc33c8c-7854-4c4b-8534-8d0473767946";
name = Fore;
shapes = (
{
closed = 1;
nodes = (
(772,510,l),
(727,510,l),
(727,650,l),
(326,650,l),
(326,351,l),
(609,351,l),
(609,306,l),
(326,306,l),
(326,-96,l),
(425,-96,l),
(425,-141,l),
(60,-141,l),
(60,-96,l),
(159,-96,l),
(159,306,l),
(60,306,l),
(60,351,l),
(159,351,l),
(159,650,l),
(60,650,l),
(60,695,l),
(772,695,l)
);
}
);
width = 811;
}
);
unicode = 402;
},
{
glyphname = circumflex;
layers = (
{
layerId = "4bc33c8c-7854-4c4b-8534-8d0473767946";
name = Fore;
shapes = (
{
closed = 1;
nodes = (
(391,546,l),
(324,641,l),
(233,546,l),
(66,546,l),
(190,710,l),
(330,710,l),
(447,546,l)
);
}
);
width = 524;
}
);
unicode = 710;
},
{
glyphname = caron;
layers = (
{
layerId = "4bc33c8c-7854-4c4b-8534-8d0473767946";
name = Fore;
shapes = (
{
closed = 1;
nodes = (
(122,710,l),
(189,615,l),
(280,710,l),
(447,710,l),
(323,546,l),
(183,546,l),
(66,710,l)
);
}
);
width = 502;
}
);
unicode = 711;
},
{
glyphname = dotaccent;
layers = (
{
layerId = "4bc33c8c-7854-4c4b-8534-8d0473767946";
name = Fore;
shapes = (
{
closed = 1;
nodes = (
(95,546,l),
(95,688,l),
(260,688,l),
(260,546,l)
);
}
);
width = 356;
}
);
unicode = 729;
},
{
glyphname = ring;
layers = (
{
layerId = "4bc33c8c-7854-4c4b-8534-8d0473767946";
name = Fore;
shapes = (
{
closed = 1;
nodes = (
(154,546,l),
(154,722,l),
(367,722,l),
(367,546,l)
);
},
{
closed = 1;
nodes = (
(199,677,l),
(199,591,l),
(322,591,l),
(322,677,l)
);
}
);
width = 540;
}
);
unicode = 730;
},
{
glyphname = tilde;
layers = (
{
layerId = "4bc33c8c-7854-4c4b-8534-8d0473767946";
name = Fore;
shapes = (
{
closed = 1;
nodes = (
(391,546,l),
(324,641,l),
(233,546,l),
(66,546,l),
(190,710,l),
(330,710,l),
(403,607,l),
(482,710,l),
(681,710,l),
(525,546,l)
);
}
);
width = 733;
}
);
unicode = 732;
},
{
glyphname = hungarumlaut;
layers = (
{
layerId = "4bc33c8c-7854-4c4b-8534-8d0473767946";
name = Fore;
shapes = (
{
closed = 1;
nodes = (
(233,546,l),
(66,546,l),
(190,710,l),
(389,710,l)
);
},
{
closed = 1;
nodes = (
(525,546,l),
(358,546,l),
(482,710,l),
(681,710,l)
);
}
);
width = 744;
}
);
unicode = 733;
},
{
glyphname = endash;
layers = (
{
layerId = "4bc33c8c-7854-4c4b-8534-8d0473767946";
name = Fore;
shapes = (
{
closed = 1;
nodes = (
(59,256,l),
(59,409,l),
(581,409,l),
(581,256,l)
);
}
);
width = 640;
}
);
unicode = 8211;
},
{
glyphname = emdash;
layers = (
{
layerId = "4bc33c8c-7854-4c4b-8534-8d0473767946";
name = Fore;
shapes = (
{
closed = 1;
nodes = (
(59,256,l),
(59,409,l),
(730,409,l),
(730,256,l)
);
}
);
width = 789;
}
);
unicode = 8212;
},
{
glyphname = quoteleft;
layers = (
{
layerId = "4bc33c8c-7854-4c4b-8534-8d0473767946";
name = Fore;
shapes = (
{
closed = 1;
nodes = (
(331,454,l),
(143,454,l),
(-13,754,l),
(175,754,l)
);
}
);
width = 375;
}
);
unicode = 8216;
},
{
glyphname = quoteright;
layers = (
{
layerId = "4bc33c8c-7854-4c4b-8534-8d0473767946";
name = Fore;
shapes = (
{
closed = 1;
nodes = (
(232,454,l),
(44,454,l),
(200,754,l),
(388,754,l)
);
}
);
width = 375;
}
);
unicode = 8217;
},
{
glyphname = quotesinglbase;
layers = (
{
layerId = "4bc33c8c-7854-4c4b-8534-8d0473767946";
name = Fore;
shapes = (
{
closed = 1;
nodes = (
(147,-147,l),
(-41,-147,l),
(115,153,l),
(303,153,l)
);
}
);
width = 362;
}
);
unicode = 8218;
},
{
glyphname = quotedblleft;
layers = (
{
layerId = "4bc33c8c-7854-4c4b-8534-8d0473767946";
name = Fore;
shapes = (
{
closed = 1;
nodes = (
(608,454,l),
(420,454,l),
(264,754,l),
(452,754,l)
);
},
{
closed = 1;
nodes = (
(331,454,l),
(143,454,l),
(-13,754,l),
(175,754,l)
);
}
);
width = 652;
}
);
unicode = 8220;
},
{
glyphname = quotedblright;
layers = (
{
layerId = "4bc33c8c-7854-4c4b-8534-8d0473767946";
name = Fore;
shapes = (
{
closed = 1;
nodes = (
(232,454,l),
(44,454,l),
(200,754,l),
(388,754,l)
);
},
{
closed = 1;
nodes = (
(509,454,l),
(321,454,l),
(477,754,l),
(665,754,l)
);
}
);
width = 652;
}
);
unicode = 8221;
},
{
glyphname = quotedblbase;
layers = (
{
layerId = "4bc33c8c-7854-4c4b-8534-8d0473767946";
name = Fore;
shapes = (
{
closed = 1;
nodes = (
(147,-147,l),
(-41,-147,l),
(115,153,l),
(303,153,l)
);
},
{
closed = 1;
nodes = (
(424,-147,l),
(236,-147,l),
(392,153,l),
(580,153,l)
);
}
);
width = 639;
}
);
unicode = 8222;
},
{
glyphname = dagger;
layers = (
{
layerId = "4bc33c8c-7854-4c4b-8534-8d0473767946";
name = Fore;
shapes = (
{
closed = 1;
nodes = (
(522,442,l),
(363,442,l),
(363,-61,l),
(196,-61,l),
(196,442,l),
(38,442,l),
(38,488,l),
(196,488,l),
(196,710,l),
(363,710,l),
(363,488,l),
(522,488,l)
);
}
);
width = 560;
}
);
unicode = 8224;
},
{
glyphname = daggerdbl;
layers = (
{
layerId = "4bc33c8c-7854-4c4b-8534-8d0473767946";
name = Fore;
shapes = (
{
closed = 1;
nodes = (
(374,207,l),
(533,207,l),
(533,161,l),
(374,161,l),
(374,-61,l),
(207,-61,l),
(207,161,l),
(49,161,l),
(49,207,l),
(207,207,l),
(207,442,l),
(49,442,l),
(49,488,l),
(207,488,l),
(207,710,l),
(374,710,l),
(374,488,l),
(533,488,l),
(533,442,l),
(374,442,l)
);
}
);
width = 582;
}
);
unicode = 8225;
},
{
glyphname = bullet;
layers = (
{
layerId = "4bc33c8c-7854-4c4b-8534-8d0473767946";
name = Fore;
shapes = (
{
closed = 1;
nodes = (
(79,237,l),
(79,428,l),
(317,428,l),
(317,237,l)
);
}
);
width = 396;
}
);
unicode = 8226;
},
{
glyphname = ellipsis;
layers = (
{
layerId = "4bc33c8c-7854-4c4b-8534-8d0473767946";
name = Fore;
shapes = (
{
closed = 1;
nodes = (
(59,0,l),
(59,153,l),
(251,153,l),
(251,0,l)
);
},
{
closed = 1;
nodes = (
(494,0,l),
(494,153,l),
(686,153,l),
(686,0,l)
);
},
{
closed = 1;
nodes = (
(929,0,l),
(929,153,l),
(1121,153,l),
(1121,0,l)
);
}
);
width = 1180;
}
);
unicode = 8230;
},
{
glyphname = perthousand;
layers = (
{
layerId = "4bc33c8c-7854-4c4b-8534-8d0473767946";
name = Fore;
shapes = (
{
closed = 1;
nodes = (
(250,0,l),
(44,0,l),
(676,695,l),
(882,695,l)
);
},
{
closed = 1;
nodes = (
(344,695,l),
(344,497,l),
(71,497,l),
(71,695,l)
);
},
{
closed = 1;
nodes = (
(856,198,l),
(856,0,l),
(583,0,l),
(583,198,l)
);
},
{
closed = 1;
nodes = (
(1193,198,l),
(1193,0,l),
(920,0,l),
(920,198,l)
);
}
);
width = 1236;
}
);
unicode = 8240;
},
{
glyphname = guilsinglleft;
layers = (
{
layerId = "4bc33c8c-7854-4c4b-8534-8d0473767946";
name = Fore;
shapes = (
{
closed = 1;
nodes = (
(446,468,l),
(270,378,l),
(446,289,l),
(446,103,l),
(35,310,l),
(446,518,l)
);
}
);
width = 514;
}
);
unicode = 8249;
},
{
glyphname = guilsinglright;
layers = (
{
layerId = "4bc33c8c-7854-4c4b-8534-8d0473767946";
name = Fore;
shapes = (
{
closed = 1;
nodes = (
(69,153,l),
(245,243,l),
(69,332,l),
(69,518,l),
(480,311,l),
(69,103,l)
);
}
);
width = 517;
}
);
unicode = 8250;
},
{
glyphname = fraction;
layers = (
{
layerId = "4bc33c8c-7854-4c4b-8534-8d0473767946";
name = Fore;
shapes = (
{
closed = 1;
nodes = (
(146,-44,l),
(-24,-44,l),
(576,738,l),
(746,738,l)
);
}
);
width = 718;
}
);
unicode = 8260;
},
{
glyphname = Euro;
layers = (
{
layerId = "4bc33c8c-7854-4c4b-8534-8d0473767946";
name = Fore;
shapes = (
{
closed = 1;
nodes = (
(878,650,l),
(321,650,l),
(321,431,l),
(545,431,l),
(545,386,l),
(321,386,l),
(321,310,l),
(545,310,l),
(545,265,l),
(321,265,l),
(321,45,l),
(878,45,l),
(878,185,l),
(923,185,l),
(923,0,l),
(55,0,l),
(55,45,l),
(154,45,l),
(154,265,l),
(55,265,l),
(55,310,l),
(154,310,l),
(154,386,l),
(55,386,l),
(55,431,l),
(154,431,l),
(154,650,l),
(55,650,l),
(55,695,l),
(923,695,l),
(923,510,l),
(878,510,l)
);
}
);
width = 981;
}
);
unicode = 8364;
},
{
glyphname = trademark;
layers = (
{
layerId = "4bc33c8c-7854-4c4b-8534-8d0473767946";
name = Fore;
shapes = (
{
closed = 1;
nodes = (
(67,602,l),
(67,695,l),
(589,695,l),
(589,602,l),
(559,602,l),
(559,665,l),
(404,665,l),
(404,380,l),
(473,380,l),
(473,350,l),
(184,350,l),
(184,380,l),
(252,380,l),
(252,665,l),
(97,665,l),
(97,602,l)
);
},
{
closed = 1;
nodes = (
(1484,380,l),
(1484,350,l),
(1196,350,l),
(1196,380,l),
(1264,380,l),
(1264,627,l),
(1072,352,l),
(881,627,l),
(881,380,l),
(949,380,l),
(949,350,l),
(661,350,l),
(661,380,l),
(729,380,l),
(729,665,l),
(661,665,l),
(661,695,l),
(875,695,l),
(1072,411,l),
(1270,695,l),
(1484,695,l),
(1484,665,l),
(1416,665,l),
(1416,380,l)
);
}
);
width = 1550;
}
);
unicode = 8482;
},
{
glyphname = minus;
layers = (
{
layerId = "4bc33c8c-7854-4c4b-8534-8d0473767946";
name = Fore;
shapes = (
{
closed = 1;
nodes = (
(59,256,l),
(59,409,l),
(526,409,l),
(526,256,l)
);
}
);
width = 585;
}
);
unicode = 8722;
},
{
glyphname = dollar.alt;
layers = (
{
layerId = "4bc33c8c-7854-4c4b-8534-8d0473767946";
name = Fore;
shapes = (
{
closed = 1;
nodes = (
(826,650,l),
(222,650,l),
(222,370,l),
(871,370,l),
(871,0,l),
(485,0,l),
(485,-146,l),
(440,-146,l),
(440,0,l),
(55,0,l),
(55,185,l),
(100,185,l),
(100,45,l),
(704,45,l),
(704,325,l),
(55,325,l),
(55,695,l),
(440,695,l),
(440,841,l),
(485,841,l),
(485,695,l),
(871,695,l),
(871,510,l),
(826,510,l)
);
}
);
width = 926;
}
);
},
